<svg width="180" height="51" viewBox="0 0 180 51" fill="none" xmlns="http://www.w3.org/2000/svg">
<g clip-path="url(#clip0_485_542)">
<path d="M95.9748 2.47514L93.3938 4.87437L84.5994 3.81871L83.5479 4.7784L90.0481 7.17763C90.3349 7.2736 90.4305 7.65748 90.1437 7.84942L87.5627 10.2487L84.4082 10.1527L83.9302 10.5366L85.6509 11.1124C86.4156 11.4003 86.9892 12.0721 87.1803 12.9358L87.4671 14.7592L87.9451 14.3753L88.2319 11.2083L91.004 8.80911C91.1952 8.61717 91.5776 8.71314 91.6732 9.00105L93.1071 15.8149L94.1586 14.8552L94.3498 5.93003L97.0263 3.72274C97.4087 3.43483 97.4087 2.85902 97.1219 2.47514C96.8352 2.09126 96.3572 2.18723 95.9748 2.47514Z" fill="white"/>
<path d="M1.43393 2.47514L4.01492 4.87437L12.8094 3.81871L13.8609 4.7784L7.36064 7.17763C7.07387 7.2736 6.97828 7.65748 7.26505 7.84942L9.84604 10.2486L13.0006 10.1527L13.4785 10.5366L11.7579 11.1124C10.9931 11.4003 10.4196 12.0721 10.2284 12.9358L9.94163 14.7592L9.46367 14.3753L9.1769 11.2083L6.40472 8.80911C6.11795 8.61717 5.83117 8.80911 5.73558 9.09702L4.3017 15.9108L3.25018 14.9511L2.96341 6.026L0.286826 3.81871C-0.0955421 3.5308 -0.0955421 2.95498 0.191234 2.57111C0.478011 2.18723 1.05156 2.18723 1.43393 2.47514Z" fill="white"/>
<path d="M24.2808 21.1891C25.8102 33.6652 34.8915 50.1719 40.9138 50.1719C46.5537 50.1719 47.6052 36.6402 47.6052 36.6402C48.5612 35.2007 49.8995 35.2007 50.8554 36.6402C50.8554 36.6402 50.8554 50.1719 57.5468 50.1719C62.7088 50.1719 69.8782 39.5193 72.746 27.811C72.746 27.907 52.0025 33.7611 24.2808 21.1891Z" fill="white"/>
<path d="M85.7466 12.6479C78.2904 18.1181 65.8634 17.9262 50.951 17.9262C50.2819 17.9262 49.7083 19.4617 49.1348 19.4617V24.5481C65.3854 24.4521 79.2463 19.6536 85.7466 12.6479Z" fill="white"/>
<path d="M12.0449 12.6479C18.7364 19.0778 31.0678 25.9876 45.6934 28.003C46.3625 28.0989 46.936 28.1949 47.6052 28.1949L47.1272 31.8417L46.4581 33.4732C30.4942 31.2659 17.5893 20.4214 12.0449 12.6479Z" fill="white"/>
<path d="M60.5102 0.171875C60.319 0.171875 60.1279 0.171875 59.9367 0.171875C59.8411 0.171875 59.8411 0.171875 59.7455 0.171875C59.6499 0.171875 59.4587 0.171875 59.3631 0.171875C59.2675 0.171875 59.1719 0.171875 59.1719 0.171875C59.0763 0.171875 58.8852 0.171875 58.7896 0.171875C58.694 0.171875 58.5984 0.171875 58.5984 0.171875C58.5028 0.171875 58.4072 0.171875 58.216 0.267844C58.1204 0.267844 58.0248 0.267844 58.0248 0.267844C57.9292 0.267844 57.7381 0.363814 57.6425 0.363814C57.5469 0.363814 57.5469 0.363814 57.4513 0.363814C57.2601 0.363814 57.1645 0.459783 56.9733 0.459783C56.9733 0.459783 56.9733 0.459783 56.8777 0.459783C56.6865 0.555752 56.4954 0.555752 56.3042 0.651721C56.2086 0.651721 56.2086 0.651721 56.113 0.747691C56.0174 0.747691 55.8262 0.84366 55.7306 0.84366C55.635 0.84366 55.635 0.939629 55.5394 0.939629C55.4438 1.13157 55.3482 1.13157 55.2527 1.22754C55.1571 1.22754 55.1571 1.32351 55.0615 1.32351C54.9659 1.32351 54.8703 1.41948 54.7747 1.41948C54.6791 1.41948 54.6791 1.51544 54.5835 1.51544C54.4879 1.61141 54.3923 1.61141 54.2967 1.70738C54.2011 1.70738 54.2011 1.80335 54.1056 1.80335C54.01 1.89932 53.8188 1.99529 53.7232 1.99529H53.6276C53.4364 2.09126 53.3408 2.18723 53.1496 2.2832L53.054 2.37917C52.9584 2.47514 52.8629 2.47514 52.7673 2.57111C52.0025 3.05095 51.3334 3.33886 50.6642 3.43483C53.054 5.54616 55.8262 6.79376 58.4072 7.75345C50.2819 6.88973 46.6494 2.18723 42.3477 0.84366C42.2521 0.84366 42.2521 0.84366 42.1565 0.747691C41.9653 0.651721 41.7742 0.651721 41.583 0.555752C41.583 0.555752 41.583 0.555752 41.4874 0.555752C41.2962 0.555752 41.2006 0.459783 41.0094 0.459783C40.9138 0.459783 40.9138 0.459783 40.8182 0.459783C40.7227 0.459783 40.5315 0.363814 40.4359 0.363814C40.3403 0.363814 40.2447 0.363814 40.2447 0.363814C40.1491 0.363814 40.0535 0.363814 39.8623 0.267844C39.7667 0.267844 39.6711 0.267844 39.6711 0.267844C39.5755 0.267844 39.3844 0.267844 39.2888 0.267844C39.1932 0.267844 39.0976 0.267844 39.0976 0.267844C39.002 0.267844 38.8108 0.267844 38.7152 0.267844C38.6196 0.267844 38.6196 0.267844 38.524 0.267844C38.3328 0.267844 38.1417 0.267844 37.9505 0.267844C30.2075 0.171875 23.8984 6.40988 23.8984 14.1834C23.8984 16.1028 23.994 18.0222 24.1852 20.0375C31.0678 22.8206 39.7667 24.4521 49.1348 24.4521C58.5028 24.4521 67.2017 22.8206 74.0843 20.0375C74.2755 18.0222 74.4667 16.1028 74.4667 14.1834C74.4667 6.40988 68.2532 0.171875 60.5102 0.171875Z" fill="white"/>
<path d="M104.578 26.9473V11.3043H110.409C111.652 11.3043 112.799 11.4963 113.755 11.8801C114.711 12.264 115.571 12.8398 116.145 13.5116C116.718 14.1834 117.292 15.0471 117.579 16.0068C117.865 16.9665 118.057 17.9262 118.057 19.0778C118.057 20.2295 117.865 21.3811 117.483 22.3408C117.101 23.3005 116.623 24.1642 115.954 24.836C115.284 25.5078 114.424 26.0836 113.468 26.4675C112.512 26.8513 111.461 27.0433 110.314 27.0433H104.578V26.9473ZM114.52 19.0778C114.52 18.406 114.424 17.7343 114.233 17.1584C114.042 16.5826 113.755 16.1028 113.468 15.7189C113.086 15.335 112.703 14.9511 112.13 14.7592C111.652 14.5673 111.078 14.4713 110.409 14.4713H108.211V23.7803H110.409C111.078 23.7803 111.652 23.6844 112.13 23.3964C112.608 23.2045 113.086 22.8206 113.373 22.4368C113.659 22.0529 113.946 21.4771 114.137 20.9972C114.424 20.4214 114.52 19.7496 114.52 19.0778Z" fill="white"/>
<path d="M125.512 27.1392C124.557 27.1392 123.696 26.9473 122.931 26.6594C122.167 26.3715 121.498 25.8916 121.02 25.4118C120.542 24.9319 120.064 24.2602 119.777 23.4924C119.49 22.8206 119.395 22.0529 119.395 21.2851C119.395 20.4214 119.49 19.6536 119.777 18.8859C120.064 18.1181 120.446 17.4463 121.02 16.9665C121.593 16.3907 122.167 16.0068 122.931 15.6229C123.696 15.335 124.557 15.1431 125.512 15.1431C126.468 15.1431 127.329 15.335 128.093 15.6229C128.858 15.9108 129.527 16.3907 130.005 16.9665C130.579 17.5423 130.961 18.1181 131.248 18.8859C131.535 19.6536 131.63 20.3254 131.63 21.1891C131.63 21.3811 131.63 21.573 131.63 21.765C131.63 21.9569 131.63 22.1488 131.535 22.2448H123.027C123.123 23.0126 123.409 23.5884 123.887 24.0682C124.365 24.5481 124.939 24.644 125.608 24.644C126.086 24.644 126.66 24.5481 127.137 24.2602C127.615 23.9723 127.902 23.6843 128.093 23.2045L131.057 24.0682C130.579 25.0279 129.91 25.6997 128.954 26.2755C127.998 26.8513 126.851 27.1392 125.512 27.1392ZM127.998 20.0375C127.902 19.2698 127.615 18.6939 127.233 18.3101C126.755 17.9262 126.182 17.6383 125.512 17.6383C124.843 17.6383 124.27 17.8302 123.792 18.3101C123.314 18.7899 123.123 19.3657 123.027 20.0375H127.998Z" fill="white"/>
<path d="M144.44 26.9473H140.903V20.4214C140.903 19.6536 140.807 19.0778 140.52 18.7899C140.234 18.502 139.851 18.3101 139.373 18.3101C139.087 18.3101 138.895 18.406 138.609 18.502C138.322 18.598 138.131 18.7899 137.844 18.8859C137.653 19.0778 137.366 19.2698 137.175 19.5577C136.983 19.8456 136.888 20.0375 136.792 20.4214V27.0433H133.255V15.335H136.41V17.2544C136.792 16.5826 137.461 16.0068 138.226 15.6229C138.991 15.2391 139.851 15.0471 140.903 15.0471C141.667 15.0471 142.241 15.1431 142.719 15.431C143.197 15.7189 143.484 16.1028 143.771 16.4867C144.057 16.8705 144.153 17.3504 144.248 17.9262C144.344 18.406 144.344 18.9819 144.344 19.4617V26.9473H144.44Z" fill="white"/>
<path d="M154.094 26.3715C153.616 26.5634 153.043 26.7554 152.469 26.9473C151.8 27.1392 151.227 27.2352 150.558 27.2352C150.08 27.2352 149.697 27.1392 149.315 27.0433C148.932 26.9473 148.55 26.7554 148.263 26.4675C147.977 26.1795 147.785 25.8916 147.594 25.5078C147.403 25.1239 147.307 24.644 147.307 24.0682V18.0222H145.874V15.335H147.307V11.6882H150.844V15.335H153.234V18.0222H150.844V22.8206C150.844 23.2045 150.94 23.4924 151.131 23.6843C151.322 23.8763 151.609 23.9723 151.896 23.9723C152.183 23.9723 152.469 23.9723 152.756 23.8763C153.043 23.7803 153.234 23.6843 153.521 23.5884L154.094 26.3715Z" fill="white"/>
<path d="M108.784 32.4176H112.034L117.77 48.0606H114.042L112.799 44.5097H108.019L106.872 48.0606H103.144L108.784 32.4176ZM112.225 42.0145L110.409 36.4483L108.497 42.0145H112.225Z" fill="white"/>
<path d="M125.895 48.2525C125.035 48.2525 124.27 48.0606 123.601 47.6767C122.931 47.2928 122.454 46.813 122.071 46.1412V48.0606H119.012V31.9377H122.549V38.3677C122.931 37.6959 123.409 37.216 124.079 36.8321C124.748 36.4483 125.512 36.2563 126.373 36.2563C127.138 36.2563 127.807 36.4483 128.38 36.7362C128.954 37.0241 129.527 37.5039 130.005 37.9838C130.483 38.4636 130.77 39.1354 131.057 39.9032C131.344 40.6709 131.439 41.4387 131.439 42.3024C131.439 43.1661 131.344 43.9339 131.057 44.6057C130.77 45.3734 130.388 45.9492 129.91 46.525C129.432 47.1009 128.858 47.4847 128.189 47.7726C127.424 48.1565 126.66 48.2525 125.895 48.2525ZM124.939 45.2774C125.321 45.2774 125.704 45.1815 126.086 45.0855C126.468 44.8936 126.755 44.7016 126.946 44.4137C127.138 44.1258 127.424 43.8379 127.52 43.454C127.615 43.0702 127.711 42.6863 127.711 42.3024C127.711 41.9185 127.615 41.5346 127.52 41.1508C127.424 40.7669 127.233 40.479 126.946 40.1911C126.755 39.9032 126.468 39.7112 126.086 39.5193C125.799 39.3274 125.417 39.2314 125.035 39.2314C124.461 39.2314 123.983 39.4233 123.505 39.8072C123.027 40.1911 122.645 40.6709 122.454 41.2467V43.646C122.645 44.1258 123.027 44.5097 123.505 44.7976C123.983 45.1815 124.461 45.2774 124.939 45.2774Z" fill="white"/>
<path d="M140.425 39.5193C139.565 39.5193 138.8 39.7112 138.131 39.9032C137.462 40.1911 136.984 40.5749 136.601 41.0548V47.9646H133.064V36.4483H136.315V38.7515C136.697 37.9838 137.175 37.408 137.844 36.9281C138.513 36.4483 139.087 36.2563 139.852 36.2563C140.043 36.2563 140.138 36.2563 140.234 36.2563C140.329 36.2563 140.425 36.2563 140.425 36.2563V39.5193Z" fill="white"/>
<path d="M146.83 48.2525C145.874 48.2525 145.014 48.0606 144.249 47.7726C143.484 47.4847 142.815 47.0049 142.337 46.4291C141.763 45.8533 141.381 45.2774 141.094 44.5097C140.808 43.7419 140.712 42.9742 140.712 42.2064C140.712 41.4387 140.808 40.6709 141.094 39.9032C141.381 39.1354 141.763 38.5596 142.337 37.9838C142.911 37.408 143.484 37.0241 144.249 36.6402C145.014 36.3523 145.874 36.1604 146.83 36.1604C147.786 36.1604 148.646 36.3523 149.411 36.6402C150.176 36.9281 150.845 37.408 151.323 37.9838C151.896 38.5596 152.279 39.1354 152.565 39.9032C152.852 40.6709 152.948 41.4387 152.948 42.2064C152.948 42.9742 152.852 43.7419 152.565 44.5097C152.279 45.2774 151.896 45.8533 151.323 46.4291C150.749 47.0049 150.176 47.3888 149.411 47.7726C148.646 48.1565 147.786 48.2525 146.83 48.2525ZM144.249 42.3024C144.249 43.2621 144.536 43.9339 145.014 44.5097C145.492 45.0855 146.161 45.3734 146.83 45.3734C147.212 45.3734 147.499 45.2774 147.881 45.1815C148.168 44.9895 148.455 44.7976 148.646 44.6057C148.837 44.3178 149.028 44.0298 149.22 43.646C149.315 43.2621 149.411 42.8782 149.411 42.3984C149.411 41.4387 149.124 40.7669 148.646 40.1911C148.168 39.6153 147.595 39.3273 146.83 39.3273C146.447 39.3273 146.161 39.4233 145.778 39.5193C145.396 39.6153 145.205 39.9032 144.918 40.0951C144.727 40.383 144.536 40.6709 144.344 41.0548C144.344 41.4387 144.249 41.8226 144.249 42.3024Z" fill="white"/>
<path d="M158.014 48.2525C157.44 48.2525 156.867 48.1565 156.389 47.9646C155.911 47.7726 155.433 47.4847 155.146 47.1968C154.764 46.9089 154.477 46.4291 154.286 46.0452C154.095 45.5654 153.999 45.0855 153.999 44.6057C153.999 44.0298 154.095 43.55 154.381 43.0702C154.668 42.5903 154.955 42.2064 155.433 41.8226C155.911 41.4387 156.389 41.2467 156.962 41.0548C157.536 40.8629 158.205 40.7669 158.97 40.7669C159.448 40.7669 159.926 40.7669 160.404 40.8629C160.882 40.9588 161.264 41.0548 161.551 41.2467V40.6709C161.551 39.3273 160.786 38.6556 159.257 38.6556C158.587 38.6556 158.014 38.7515 157.44 38.9435C156.867 39.1354 156.293 39.5193 155.624 39.9032L154.573 37.6959C155.337 37.216 156.102 36.8321 156.962 36.5442C157.823 36.2563 158.683 36.1604 159.543 36.1604C161.264 36.1604 162.602 36.5442 163.558 37.408C164.514 38.2717 164.992 39.4233 164.992 41.0548V44.0298C164.992 44.4137 165.088 44.6057 165.183 44.7976C165.279 44.8936 165.47 44.9895 165.757 45.0855V48.0606C165.47 48.1565 165.183 48.1565 164.897 48.1565C164.61 48.1565 164.419 48.1565 164.227 48.1565C163.558 48.1565 163.08 48.0606 162.698 47.7726C162.316 47.4847 162.124 47.1968 162.029 46.717L161.933 46.1412C161.455 46.813 160.786 47.2928 160.117 47.6767C159.543 48.0606 158.779 48.2525 158.014 48.2525ZM159.065 45.7573C159.448 45.7573 159.83 45.6613 160.213 45.5654C160.595 45.4694 160.882 45.2774 161.073 44.9895C161.455 44.7016 161.551 44.4137 161.551 44.1258V42.9742C161.264 42.8782 160.882 42.7822 160.595 42.6863C160.213 42.5903 159.926 42.5903 159.639 42.5903C158.97 42.5903 158.492 42.7822 158.014 43.0702C157.632 43.3581 157.345 43.7419 157.345 44.2218C157.345 44.6057 157.536 44.9895 157.823 45.2774C158.109 45.5654 158.492 45.7573 159.065 45.7573Z" fill="white"/>
<path d="M172.353 48.2525C171.588 48.2525 170.823 48.0606 170.154 47.7726C169.485 47.4847 168.911 47.0049 168.433 46.525C167.955 45.9492 167.573 45.3734 167.286 44.6057C166.999 43.8379 166.904 43.0701 166.904 42.2064C166.904 41.3427 166.999 40.5749 167.286 39.8072C167.573 39.0394 167.86 38.4636 168.338 37.8878C168.816 37.312 169.294 36.9281 169.963 36.6402C170.632 36.3523 171.301 36.1604 172.066 36.1604C172.831 36.1604 173.595 36.3523 174.264 36.7362C174.934 37.1201 175.411 37.5999 175.794 38.2717V31.8417H179.331V43.9339C179.331 44.3177 179.426 44.5097 179.522 44.7016C179.618 44.7976 179.809 44.8936 180.096 44.9895V47.9646C179.809 48.0606 179.522 48.0606 179.235 48.0606C179.044 48.0606 178.757 48.0606 178.566 48.0606C177.992 48.0606 177.419 47.9646 177.037 47.6767C176.654 47.3888 176.463 47.0049 176.367 46.525L176.272 45.9492C175.889 46.717 175.316 47.1968 174.647 47.5807C173.978 48.0606 173.213 48.2525 172.353 48.2525ZM173.308 45.2774C173.786 45.2774 174.264 45.1815 174.742 44.8936C175.22 44.6057 175.507 44.2218 175.794 43.7419V41.3427C175.603 40.7669 175.22 40.287 174.742 39.9032C174.264 39.5193 173.786 39.3273 173.213 39.3273C172.831 39.3273 172.448 39.4233 172.161 39.6153C171.875 39.8072 171.588 39.9991 171.301 40.287C171.11 40.5749 170.919 40.8629 170.727 41.2467C170.632 41.6306 170.536 42.0145 170.536 42.3984C170.536 42.7822 170.632 43.2621 170.727 43.55C170.823 43.9339 171.014 44.2218 171.301 44.5097C171.588 44.7976 171.875 44.9895 172.161 45.0855C172.448 45.1815 172.926 45.2774 173.308 45.2774Z" fill="white"/>
</g>
<defs>
<clipPath id="clip0_485_542">
<rect width="180" height="50" fill="white" transform="translate(0 0.171875)"/>
</clipPath>
</defs>
</svg>
